<?xml version="1.0" standalone="no"?>
<!DOCTYPE svg PUBLIC "-//W3C//DTD SVG 20010904//EN"
 "http://www.w3.org/TR/2001/REC-SVG-20010904/DTD/svg10.dtd">
<svg version="1.0" xmlns="http://www.w3.org/2000/svg"
 width="1600.000000pt" height="275.000000pt" viewBox="0 0 1600.000000 275.000000"
 preserveAspectRatio="xMidYMid meet">

<g transform="translate(0.000000,275.000000) scale(0.100000,-0.100000)"
fill="#F5F5DC" stroke="none">
<path d="M12920 2361 c-92 -19 -145 -86 -145 -186 0 -78 33 -138 90 -168 50
-25 165 -28 210 -5 67 35 99 91 99 173 0 80 -33 138 -94 170 -33 17 -116 25
-160 16z"/>
<path d="M3940 2320 c-355 -42 -623 -282 -712 -637 -32 -125 -32 -390 0 -508
29 -105 108 -265 172 -342 105 -130 270 -232 445 -275 129 -32 379 -32 510 0
175 44 337 142 437 266 l47 59 3 151 3 151 68 3 67 3 0 134 0 135 -465 0 -465
0 0 -135 0 -135 225 0 225 0 0 -79 0 -79 -42 -37 c-152 -132 -412 -162 -603
-70 -127 61 -210 166 -251 315 -22 82 -25 281 -5 360 66 264 277 408 541 370
172 -24 300 -120 345 -258 l17 -52 184 0 184 0 0 27 c0 15 -7 56 -16 92 -90
366 -474 593 -914 541z"/>
<path d="M8658 2320 c-246 -29 -428 -162 -488 -359 -27 -86 -27 -236 -1 -320
40 -128 129 -226 265 -290 101 -48 140 -58 323 -77 213 -22 265 -36 321 -88
55 -50 67 -128 31 -202 -43 -90 -146 -134 -313 -134 -121 0 -187 17 -248 63
-42 32 -82 96 -93 149 l-5 28 -180 0 -180 0 0 -32 c0 -57 29 -159 63 -222 70
-133 228 -241 412 -283 119 -27 380 -24 489 6 214 58 365 184 416 349 58 187
19 367 -108 491 -113 111 -271 170 -525 196 -172 18 -208 27 -256 63 -37 27
-70 92 -71 136 0 87 60 171 145 200 99 33 237 14 307 -44 40 -33 78 -102 78
-143 l0 -27 185 0 185 0 0 33 c0 17 -7 60 -15 95 -55 232 -235 377 -510 411
-99 12 -128 12 -227 1z"/>
<path d="M1732 2297 c-38 -12 -89 -65 -98 -103 -12 -47 14 -101 84 -176 84
-89 209 -191 225 -185 7 3 54 40 105 82 93 78 177 177 188 221 11 45 -5 91
-45 127 -60 54 -142 60 -220 16 l-33 -20 -51 26 c-54 26 -100 30 -155 12z"/>
<path d="M14810 2140 l0 -130 75 0 75 0 0 -720 0 -720 185 0 185 0 0 850 0
850 -260 0 -260 0 0 -130z"/>
<path d="M6720 2025 l0 -175 -95 0 -95 0 0 -135 0 -135 94 0 94 0 4 -337 c4
-312 6 -343 26 -403 69 -210 202 -279 540 -280 l142 0 0 154 0 154 -134 4
c-150 3 -171 11 -211 79 -19 32 -20 55 -23 332 l-3 297 185 0 186 0 0 135 0
135 -185 0 -185 0 0 175 0 175 -170 0 -170 0 0 -175z"/>
<path d="M1035 1929 c-117 -24 -248 -115 -313 -217 -98 -153 -99 -370 -3 -521
93 -144 252 -231 422 -231 59 0 68 -3 74 -20 11 -34 120 -135 184 -168 223
-120 503 -46 640 167 207 321 -28 750 -411 751 l-67 0 -30 43 c-103 150 -314
233 -496 196z"/>
<path d="M5615 1874 c-211 -51 -375 -213 -445 -439 -31 -100 -38 -265 -16
-375 52 -269 250 -470 506 -516 101 -19 257 -13 340 12 157 46 292 155 353
285 19 41 37 84 40 97 l5 22 -165 0 -166 0 -35 -40 c-53 -63 -101 -83 -208
-88 -121 -6 -180 13 -244 77 -34 34 -53 64 -68 111 -38 111 -88 100 443 100
l465 0 0 113 c0 136 -17 214 -71 326 -74 153 -228 278 -390 316 -81 19 -264
18 -344 -1z m312 -310 c29 -14 65 -42 80 -61 28 -37 75 -161 67 -175 -3 -4
-136 -8 -295 -8 l-291 0 7 33 c18 86 82 179 147 213 78 41 200 40 285 -2z"/>
<path d="M10211 1879 c-274 -54 -468 -239 -526 -503 -14 -60 -16 -107 -13
-205 6 -141 29 -225 90 -329 42 -70 138 -167 211 -210 174 -104 445 -130 657
-63 205 65 366 236 420 447 24 93 27 266 6 365 -52 243 -248 436 -503 493 -78
17 -265 20 -342 5z m281 -315 c167 -54 256 -289 191 -499 -49 -156 -165 -232
-337 -223 -146 8 -246 85 -287 220 -31 102 -24 248 15 335 72 159 238 225 418
167z"/>
<path d="M11722 1870 c-209 -55 -370 -217 -430 -436 -76 -273 -4 -581 174
-743 242 -221 691 -211 911 20 83 88 143 218 143 310 l0 39 -175 0 -175 0 -11
-47 c-28 -107 -152 -184 -277 -169 -160 19 -238 121 -249 327 -14 244 80 394
254 406 143 11 224 -44 267 -179 5 -16 23 -18 182 -18 l177 0 -7 55 c-24 203
-190 378 -412 435 -103 27 -270 26 -372 0z"/>
<path d="M13760 1864 c-30 -2 -79 -6 -107 -10 l-53 -5 0 -156 c0 -135 2 -154
15 -149 25 9 477 20 518 12 72 -13 121 -77 129 -166 l3 -35 -210 -6 c-150 -4
-227 -11 -270 -23 -148 -41 -247 -112 -296 -211 -21 -44 -24 -63 -24 -165 0
-110 2 -119 32 -181 60 -122 175 -198 331 -220 102 -15 218 -1 295 36 69 32
141 105 177 180 l29 60 0 -127 1 -128 146 0 145 0 -3 457 c-3 446 -4 460 -26
521 -29 82 -58 127 -118 183 -56 52 -134 92 -226 115 -62 16 -356 26 -488 18z
m507 -796 c-12 -146 -43 -210 -124 -249 -68 -33 -172 -32 -234 2 -117 64 -117
244 1 306 40 21 55 23 203 23 l160 0 -6 -82z"/>
<path d="M12660 1715 l0 -135 85 0 85 0 0 -505 0 -505 185 0 185 0 0 640 0
640 -270 0 -270 0 0 -135z"/>
</g>
</svg>
